<mxfile host="app.diagrams.net" agent="Mozilla/5.0 (Windows NT 10.0; Win64; x64) AppleWebKit/537.36 (KHTML, like Gecko) Chrome/140.0.0.0 Safari/537.36 Edg/140.0.0.0" version="28.2.5">
  <diagram name="Página-1" id="yIkPskF3tNsshCI_d_uD">
    <mxGraphModel dx="1418" dy="786" grid="1" gridSize="10" guides="1" tooltips="1" connect="1" arrows="1" fold="1" page="1" pageScale="1" pageWidth="827" pageHeight="1169" math="0" shadow="0">
      <root>
        <mxCell id="0" />
        <mxCell id="1" parent="0" />
        <mxCell id="Z4hrxRLbaqMMD4cfCzb8-3" style="edgeStyle=orthogonalEdgeStyle;rounded=0;orthogonalLoop=1;jettySize=auto;html=1;entryX=0;entryY=0.5;entryDx=0;entryDy=0;" edge="1" parent="1" source="Z4hrxRLbaqMMD4cfCzb8-1" target="Z4hrxRLbaqMMD4cfCzb8-2">
          <mxGeometry relative="1" as="geometry" />
        </mxCell>
        <mxCell id="Z4hrxRLbaqMMD4cfCzb8-1" value="inicio" style="ellipse;whiteSpace=wrap;html=1;fillColor=#60a917;fontColor=#ffffff;strokeColor=#2D7600;" vertex="1" parent="1">
          <mxGeometry x="310" y="10" width="120" height="80" as="geometry" />
        </mxCell>
        <mxCell id="Z4hrxRLbaqMMD4cfCzb8-5" style="edgeStyle=orthogonalEdgeStyle;rounded=0;orthogonalLoop=1;jettySize=auto;html=1;entryX=0;entryY=0.5;entryDx=0;entryDy=0;" edge="1" parent="1" source="Z4hrxRLbaqMMD4cfCzb8-2" target="Z4hrxRLbaqMMD4cfCzb8-4">
          <mxGeometry relative="1" as="geometry" />
        </mxCell>
        <mxCell id="Z4hrxRLbaqMMD4cfCzb8-2" value="bolo=0,8&lt;div&gt;sandes=1&lt;/div&gt;&lt;div&gt;café=0,6&lt;/div&gt;&lt;div&gt;refrigerante=1,5&lt;/div&gt;" style="rounded=0;whiteSpace=wrap;html=1;fillColor=#1ba1e2;fontColor=#ffffff;strokeColor=#006EAF;" vertex="1" parent="1">
          <mxGeometry x="300" y="170" width="120" height="60" as="geometry" />
        </mxCell>
        <mxCell id="Z4hrxRLbaqMMD4cfCzb8-8" value="" style="edgeStyle=orthogonalEdgeStyle;rounded=0;orthogonalLoop=1;jettySize=auto;html=1;" edge="1" parent="1" source="Z4hrxRLbaqMMD4cfCzb8-4" target="Z4hrxRLbaqMMD4cfCzb8-6">
          <mxGeometry relative="1" as="geometry" />
        </mxCell>
        <mxCell id="Z4hrxRLbaqMMD4cfCzb8-4" value="Ler PreçosSandes,PreçosBolos,PreçosCafé&lt;div&gt;PreçosRefrigerante&lt;/div&gt;" style="shape=parallelogram;perimeter=parallelogramPerimeter;whiteSpace=wrap;html=1;fixedSize=1;fillColor=#1ba1e2;fontColor=#ffffff;strokeColor=#006EAF;" vertex="1" parent="1">
          <mxGeometry x="520" y="130" width="260" height="60" as="geometry" />
        </mxCell>
        <mxCell id="Z4hrxRLbaqMMD4cfCzb8-11" value="" style="edgeStyle=orthogonalEdgeStyle;rounded=0;orthogonalLoop=1;jettySize=auto;html=1;" edge="1" parent="1" source="Z4hrxRLbaqMMD4cfCzb8-6" target="Z4hrxRLbaqMMD4cfCzb8-9">
          <mxGeometry relative="1" as="geometry" />
        </mxCell>
        <mxCell id="Z4hrxRLbaqMMD4cfCzb8-6" value="Ler SandesVendidas,BolosVendidos&lt;div&gt;CaféVendidos,RefrigeranteVendido&lt;/div&gt;" style="shape=parallelogram;perimeter=parallelogramPerimeter;whiteSpace=wrap;html=1;fixedSize=1;fillColor=#a20025;fontColor=#ffffff;strokeColor=#6F0000;" vertex="1" parent="1">
          <mxGeometry x="520" y="290" width="240" height="60" as="geometry" />
        </mxCell>
        <mxCell id="Z4hrxRLbaqMMD4cfCzb8-13" style="edgeStyle=orthogonalEdgeStyle;rounded=0;orthogonalLoop=1;jettySize=auto;html=1;entryX=1;entryY=0.5;entryDx=0;entryDy=0;" edge="1" parent="1" source="Z4hrxRLbaqMMD4cfCzb8-9" target="Z4hrxRLbaqMMD4cfCzb8-12">
          <mxGeometry relative="1" as="geometry">
            <Array as="points">
              <mxPoint x="650" y="680" />
            </Array>
          </mxGeometry>
        </mxCell>
        <mxCell id="Z4hrxRLbaqMMD4cfCzb8-9" value="Lucro=SV,BV,CV,RV" style="shape=parallelogram;perimeter=parallelogramPerimeter;whiteSpace=wrap;html=1;fixedSize=1;fillColor=#a20025;fontColor=#ffffff;strokeColor=#6F0000;" vertex="1" parent="1">
          <mxGeometry x="530" y="440" width="240" height="60" as="geometry" />
        </mxCell>
        <mxCell id="Z4hrxRLbaqMMD4cfCzb8-12" value="Fim" style="ellipse;whiteSpace=wrap;html=1;fillColor=#6a00ff;fontColor=#ffffff;strokeColor=#3700CC;" vertex="1" parent="1">
          <mxGeometry x="300" y="640" width="120" height="80" as="geometry" />
        </mxCell>
      </root>
    </mxGraphModel>
  </diagram>
</mxfile>
